<?xml version="1.0" encoding="UTF-8" standalone="no"?>
<!DOCTYPE svg PUBLIC "-//W3C//DTD SVG 1.1//EN"
 "http://www.w3.org/Graphics/SVG/1.1/DTD/svg11.dtd">
<!-- Generated by graphviz version 2.40.1 (20161225.0304)
 -->
<!-- Title: %3 Pages: 1 -->
<svg width="1201pt" height="404pt"
 viewBox="0.00 0.00 1201.18 404.00" xmlns="http://www.w3.org/2000/svg" xmlns:xlink="http://www.w3.org/1999/xlink">
<g id="graph0" class="graph" transform="scale(1 1) rotate(0) translate(4 400)">
<title>%3</title>
<polygon fill="#ffffff" stroke="transparent" points="-4,4 -4,-400 1197.1799,-400 1197.1799,4 -4,4"/>
<!-- [root] heroku_addon.develop -->
<g id="node1" class="node">
<title>[root] heroku_addon.develop</title>
<polygon fill="none" stroke="#000000" points="767.0386,-252 627.0386,-252 627.0386,-216 767.0386,-216 767.0386,-252"/>
<text text-anchor="middle" x="697.0386" y="-230.3" font-family="Times,serif" font-size="14.00" fill="#000000">heroku_addon.develop</text>
</g>
<!-- [root] heroku_app.develop -->
<g id="node2" class="node">
<title>[root] heroku_app.develop</title>
<polygon fill="none" stroke="#000000" points="665.5386,-180 538.5386,-180 538.5386,-144 665.5386,-144 665.5386,-180"/>
<text text-anchor="middle" x="602.0386" y="-158.3" font-family="Times,serif" font-size="14.00" fill="#000000">heroku_app.develop</text>
</g>
<!-- [root] heroku_addon.develop&#45;&gt;[root] heroku_app.develop -->
<g id="edge1" class="edge">
<title>[root] heroku_addon.develop&#45;&gt;[root] heroku_app.develop</title>
<path fill="none" stroke="#000000" d="M673.0661,-215.8314C661.2526,-206.8779 646.8415,-195.9558 634.0952,-186.2955"/>
<polygon fill="#000000" stroke="#000000" points="636.0873,-183.4137 626.0035,-180.1628 631.8591,-188.9925 636.0873,-183.4137"/>
</g>
<!-- [root] var.heroku_develop_database -->
<g id="node6" class="node">
<title>[root] var.heroku_develop_database</title>
<ellipse fill="none" stroke="#000000" cx="821.0386" cy="-162" rx="137.5759" ry="18"/>
<text text-anchor="middle" x="821.0386" y="-158.3" font-family="Times,serif" font-size="14.00" fill="#000000">[root] var.heroku_develop_database</text>
</g>
<!-- [root] heroku_addon.develop&#45;&gt;[root] var.heroku_develop_database -->
<g id="edge2" class="edge">
<title>[root] heroku_addon.develop&#45;&gt;[root] var.heroku_develop_database</title>
<path fill="none" stroke="#000000" d="M728.3291,-215.8314C744.5807,-206.3949 764.5984,-194.7717 781.869,-184.7436"/>
<polygon fill="#000000" stroke="#000000" points="783.7251,-187.7132 790.6155,-179.665 780.2101,-181.6597 783.7251,-187.7132"/>
</g>
<!-- [root] provider.heroku -->
<g id="node5" class="node">
<title>[root] provider.heroku</title>
<polygon fill="none" stroke="#000000" points="370.0386,-108 274.3538,-90 370.0386,-72 465.7234,-90 370.0386,-108"/>
<text text-anchor="middle" x="370.0386" y="-86.3" font-family="Times,serif" font-size="14.00" fill="#000000">provider.heroku</text>
</g>
<!-- [root] heroku_app.develop&#45;&gt;[root] provider.heroku -->
<g id="edge3" class="edge">
<title>[root] heroku_app.develop&#45;&gt;[root] provider.heroku</title>
<path fill="none" stroke="#000000" d="M543.7947,-143.9243C504.2887,-131.6638 452.7835,-115.6794 416.13,-104.3042"/>
<polygon fill="#000000" stroke="#000000" points="416.7961,-100.8463 406.208,-101.225 414.7213,-107.5318 416.7961,-100.8463"/>
</g>
<!-- [root] var.heroku_build_packs -->
<g id="node7" class="node">
<title>[root] var.heroku_build_packs</title>
<ellipse fill="none" stroke="#000000" cx="602.0386" cy="-90" rx="118.0794" ry="18"/>
<text text-anchor="middle" x="602.0386" y="-86.3" font-family="Times,serif" font-size="14.00" fill="#000000">[root] var.heroku_build_packs</text>
</g>
<!-- [root] heroku_app.develop&#45;&gt;[root] var.heroku_build_packs -->
<g id="edge4" class="edge">
<title>[root] heroku_app.develop&#45;&gt;[root] var.heroku_build_packs</title>
<path fill="none" stroke="#000000" d="M602.0386,-143.8314C602.0386,-136.131 602.0386,-126.9743 602.0386,-118.4166"/>
<polygon fill="#000000" stroke="#000000" points="605.5387,-118.4132 602.0386,-108.4133 598.5387,-118.4133 605.5387,-118.4132"/>
</g>
<!-- [root] var.heroku_develop_app -->
<g id="node8" class="node">
<title>[root] var.heroku_develop_app</title>
<ellipse fill="none" stroke="#000000" cx="859.0386" cy="-90" rx="120.4791" ry="18"/>
<text text-anchor="middle" x="859.0386" y="-86.3" font-family="Times,serif" font-size="14.00" fill="#000000">[root] var.heroku_develop_app</text>
</g>
<!-- [root] heroku_app.develop&#45;&gt;[root] var.heroku_develop_app -->
<g id="edge5" class="edge">
<title>[root] heroku_app.develop&#45;&gt;[root] var.heroku_develop_app</title>
<path fill="none" stroke="#000000" d="M665.5667,-144.2022C704.2092,-133.3763 753.4894,-119.5702 792.6422,-108.6013"/>
<polygon fill="#000000" stroke="#000000" points="793.6805,-111.9453 802.3655,-105.8773 791.792,-105.2048 793.6805,-111.9453"/>
</g>
<!-- [root] var.heroku_region -->
<g id="node9" class="node">
<title>[root] var.heroku_region</title>
<ellipse fill="none" stroke="#000000" cx="1095.0386" cy="-90" rx="98.2828" ry="18"/>
<text text-anchor="middle" x="1095.0386" y="-86.3" font-family="Times,serif" font-size="14.00" fill="#000000">[root] var.heroku_region</text>
</g>
<!-- [root] heroku_app.develop&#45;&gt;[root] var.heroku_region -->
<g id="edge6" class="edge">
<title>[root] heroku_app.develop&#45;&gt;[root] var.heroku_region</title>
<path fill="none" stroke="#000000" d="M665.544,-145.6449C668.4082,-145.0585 671.2496,-144.5063 674.0386,-144 812.2499,-118.9119 848.9512,-127.6583 988.0386,-108 996.5086,-106.8029 1005.3404,-105.4641 1014.1392,-104.0716"/>
<polygon fill="#000000" stroke="#000000" points="1014.7201,-107.5232 1024.0383,-102.4812 1013.6097,-100.6118 1014.7201,-107.5232"/>
</g>
<!-- [root] heroku_pipeline.pipeline -->
<g id="node3" class="node">
<title>[root] heroku_pipeline.pipeline</title>
<polygon fill="none" stroke="#000000" points="446.0386,-180 294.0386,-180 294.0386,-144 446.0386,-144 446.0386,-180"/>
<text text-anchor="middle" x="370.0386" y="-158.3" font-family="Times,serif" font-size="14.00" fill="#000000">heroku_pipeline.pipeline</text>
</g>
<!-- [root] heroku_pipeline.pipeline&#45;&gt;[root] provider.heroku -->
<g id="edge7" class="edge">
<title>[root] heroku_pipeline.pipeline&#45;&gt;[root] provider.heroku</title>
<path fill="none" stroke="#000000" d="M370.0386,-143.8314C370.0386,-136.131 370.0386,-126.9743 370.0386,-118.4166"/>
<polygon fill="#000000" stroke="#000000" points="373.5387,-118.4132 370.0386,-108.4133 366.5387,-118.4133 373.5387,-118.4132"/>
</g>
<!-- [root] var.heroku_pipeline_name -->
<g id="node10" class="node">
<title>[root] var.heroku_pipeline_name</title>
<ellipse fill="none" stroke="#000000" cx="128.0386" cy="-90" rx="128.0773" ry="18"/>
<text text-anchor="middle" x="128.0386" y="-86.3" font-family="Times,serif" font-size="14.00" fill="#000000">[root] var.heroku_pipeline_name</text>
</g>
<!-- [root] heroku_pipeline.pipeline&#45;&gt;[root] var.heroku_pipeline_name -->
<g id="edge8" class="edge">
<title>[root] heroku_pipeline.pipeline&#45;&gt;[root] var.heroku_pipeline_name</title>
<path fill="none" stroke="#000000" d="M309.2842,-143.9243C273.8343,-133.3772 229.122,-120.0744 192.9775,-109.3206"/>
<polygon fill="#000000" stroke="#000000" points="193.6078,-105.8566 183.0249,-106.3595 191.6116,-112.566 193.6078,-105.8566"/>
</g>
<!-- [root] heroku_pipeline_coupling.develop -->
<g id="node4" class="node">
<title>[root] heroku_pipeline_coupling.develop</title>
<polygon fill="none" stroke="#000000" points="574.5386,-252 369.5386,-252 369.5386,-216 574.5386,-216 574.5386,-252"/>
<text text-anchor="middle" x="472.0386" y="-230.3" font-family="Times,serif" font-size="14.00" fill="#000000">heroku_pipeline_coupling.develop</text>
</g>
<!-- [root] heroku_pipeline_coupling.develop&#45;&gt;[root] heroku_app.develop -->
<g id="edge9" class="edge">
<title>[root] heroku_pipeline_coupling.develop&#45;&gt;[root] heroku_app.develop</title>
<path fill="none" stroke="#000000" d="M504.8431,-215.8314C521.6249,-206.5368 542.2372,-195.1208 560.155,-185.1971"/>
<polygon fill="#000000" stroke="#000000" points="562.1925,-188.0696 569.2446,-180.1628 558.801,-181.9461 562.1925,-188.0696"/>
</g>
<!-- [root] heroku_pipeline_coupling.develop&#45;&gt;[root] heroku_pipeline.pipeline -->
<g id="edge10" class="edge">
<title>[root] heroku_pipeline_coupling.develop&#45;&gt;[root] heroku_pipeline.pipeline</title>
<path fill="none" stroke="#000000" d="M446.2997,-215.8314C433.4949,-206.7927 417.8478,-195.7476 404.0667,-186.0198"/>
<polygon fill="#000000" stroke="#000000" points="405.9574,-183.0703 395.7693,-180.1628 401.9206,-188.7891 405.9574,-183.0703"/>
</g>
<!-- [root] var.heroku_account_email -->
<g id="node13" class="node">
<title>[root] var.heroku_account_email</title>
<ellipse fill="none" stroke="#000000" cx="246.0386" cy="-18" rx="127.2775" ry="18"/>
<text text-anchor="middle" x="246.0386" y="-14.3" font-family="Times,serif" font-size="14.00" fill="#000000">[root] var.heroku_account_email</text>
</g>
<!-- [root] provider.heroku&#45;&gt;[root] var.heroku_account_email -->
<g id="edge15" class="edge">
<title>[root] provider.heroku&#45;&gt;[root] var.heroku_account_email</title>
<path fill="none" stroke="#000000" d="M346.4233,-76.2879C329.2394,-66.3101 305.5697,-52.5664 285.5301,-40.9305"/>
<polygon fill="#000000" stroke="#000000" points="287.0199,-37.7484 276.6145,-35.7537 283.5049,-43.8019 287.0199,-37.7484"/>
</g>
<!-- [root] var.heroku_api_key -->
<g id="node14" class="node">
<title>[root] var.heroku_api_key</title>
<ellipse fill="none" stroke="#000000" cx="495.0386" cy="-18" rx="103.1819" ry="18"/>
<text text-anchor="middle" x="495.0386" y="-14.3" font-family="Times,serif" font-size="14.00" fill="#000000">[root] var.heroku_api_key</text>
</g>
<!-- [root] provider.heroku&#45;&gt;[root] var.heroku_api_key -->
<g id="edge16" class="edge">
<title>[root] provider.heroku&#45;&gt;[root] var.heroku_api_key</title>
<path fill="none" stroke="#000000" d="M393.8444,-76.2879C411.3684,-66.1941 435.5833,-52.2463 455.9319,-40.5255"/>
<polygon fill="#000000" stroke="#000000" points="457.759,-43.5122 464.6774,-35.4881 454.2651,-37.4465 457.759,-43.5122"/>
</g>
<!-- [root] meta.count&#45;boundary (count boundary fixup) -->
<g id="node11" class="node">
<title>[root] meta.count&#45;boundary (count boundary fixup)</title>
<ellipse fill="none" stroke="#000000" cx="404.0386" cy="-306" rx="193.0657" ry="18"/>
<text text-anchor="middle" x="404.0386" y="-302.3" font-family="Times,serif" font-size="14.00" fill="#000000">[root] meta.count&#45;boundary (count boundary fixup)</text>
</g>
<!-- [root] meta.count&#45;boundary (count boundary fixup)&#45;&gt;[root] heroku_addon.develop -->
<g id="edge11" class="edge">
<title>[root] meta.count&#45;boundary (count boundary fixup)&#45;&gt;[root] heroku_addon.develop</title>
<path fill="none" stroke="#000000" d="M472.7341,-289.1192C515.9903,-278.4897 571.9953,-264.7274 617.2218,-253.6137"/>
<polygon fill="#000000" stroke="#000000" points="618.118,-256.9977 626.9939,-251.2124 616.4475,-250.1999 618.118,-256.9977"/>
</g>
<!-- [root] meta.count&#45;boundary (count boundary fixup)&#45;&gt;[root] heroku_pipeline_coupling.develop -->
<g id="edge12" class="edge">
<title>[root] meta.count&#45;boundary (count boundary fixup)&#45;&gt;[root] heroku_pipeline_coupling.develop</title>
<path fill="none" stroke="#000000" d="M421.1979,-287.8314C429.1898,-279.3694 438.8425,-269.1489 447.5803,-259.8971"/>
<polygon fill="#000000" stroke="#000000" points="450.3266,-262.0866 454.6483,-252.4133 445.2375,-257.2802 450.3266,-262.0866"/>
</g>
<!-- [root] provider.heroku (close) -->
<g id="node12" class="node">
<title>[root] provider.heroku (close)</title>
<ellipse fill="none" stroke="#000000" cx="731.0386" cy="-306" rx="116.1796" ry="18"/>
<text text-anchor="middle" x="731.0386" y="-302.3" font-family="Times,serif" font-size="14.00" fill="#000000">[root] provider.heroku (close)</text>
</g>
<!-- [root] provider.heroku (close)&#45;&gt;[root] heroku_addon.develop -->
<g id="edge13" class="edge">
<title>[root] provider.heroku (close)&#45;&gt;[root] heroku_addon.develop</title>
<path fill="none" stroke="#000000" d="M722.459,-287.8314C718.7028,-279.8771 714.2129,-270.369 710.0589,-261.5723"/>
<polygon fill="#000000" stroke="#000000" points="713.1688,-259.9612 705.7338,-252.4133 706.839,-262.9503 713.1688,-259.9612"/>
</g>
<!-- [root] provider.heroku (close)&#45;&gt;[root] heroku_pipeline_coupling.develop -->
<g id="edge14" class="edge">
<title>[root] provider.heroku (close)&#45;&gt;[root] heroku_pipeline_coupling.develop</title>
<path fill="none" stroke="#000000" d="M674.2,-290.1993C636.7822,-279.7974 587.3982,-266.0691 546.8063,-254.7848"/>
<polygon fill="#000000" stroke="#000000" points="547.5287,-251.353 536.9566,-252.0467 545.6538,-258.0972 547.5287,-251.353"/>
</g>
<!-- [root] root -->
<g id="node15" class="node">
<title>[root] root</title>
<ellipse fill="none" stroke="#000000" cx="567.0386" cy="-378" rx="47.3916" ry="18"/>
<text text-anchor="middle" x="567.0386" y="-374.3" font-family="Times,serif" font-size="14.00" fill="#000000">[root] root</text>
</g>
<!-- [root] root&#45;&gt;[root] meta.count&#45;boundary (count boundary fixup) -->
<g id="edge17" class="edge">
<title>[root] root&#45;&gt;[root] meta.count&#45;boundary (count boundary fixup)</title>
<path fill="none" stroke="#000000" d="M535.9959,-364.2879C512.6125,-353.959 480.0929,-339.5945 453.1882,-327.7102"/>
<polygon fill="#000000" stroke="#000000" points="454.4916,-324.4598 443.93,-323.6207 451.6632,-330.8629 454.4916,-324.4598"/>
</g>
<!-- [root] root&#45;&gt;[root] provider.heroku (close) -->
<g id="edge18" class="edge">
<title>[root] root&#45;&gt;[root] provider.heroku (close)</title>
<path fill="none" stroke="#000000" d="M598.2718,-364.2879C622.1312,-353.813 655.4446,-339.1876 682.732,-327.2078"/>
<polygon fill="#000000" stroke="#000000" points="684.3577,-330.3166 692.1071,-323.0919 681.5437,-323.9071 684.3577,-330.3166"/>
</g>
</g>
</svg>
